name C:\Users\u0101727\Documents\MyRepositories\upper-imu-dc\Results\main_mocap_tracking\Case_8\kinematics.mot
datacolumns 12
datarows 39
range 5.00000000 5.38000000
endheader 
time	clav_prot	clav_elev	scapula_abduction	scapula_elevation	scapula_upward_rot	scapula_winging	plane_elv	shoulder_elv	axial_rot	elbow_flexion	pro_sup	
          5.00000000	        -27.86391550	          4.70412209	         -6.39335422	         -3.04982011	         38.79658081	         -3.56459535	         73.33989689	         47.40857478	        -26.44667762	          0.01324420	         34.31827061	
          5.01000000	        -27.71345031	          4.45911784	         -6.50260393	         -3.13210743	         38.22415989	         -3.37220526	         73.06927784	         46.99162659	        -26.10610137	          0.01288491	         34.31845455	
          5.02000000	        -27.57061070	          4.21357529	         -6.61844312	         -3.21476923	         37.65806140	         -3.18037159	         72.80271411	         46.58016547	        -25.71657584	          0.01104511	         34.31881320	
          5.03000000	        -27.43311869	          3.96981174	         -6.73552945	         -3.29648320	         37.10109596	         -2.98988542	         72.53815957	         46.17103184	        -25.26121677	          0.00795156	         34.31930269	
          5.04000000	        -27.29799849	          3.72883418	         -6.84705633	         -3.37681203	         36.55587691	         -2.80119011	         72.27126007	         45.76074786	        -24.72404692	          0.00420207	         34.31984051	
          5.05000000	        -27.16221955	          3.49020996	         -6.94635352	         -3.45623805	         36.02415102	         -2.61427888	         71.99589541	         45.34662224	        -24.10012390	          0.00059382	         34.32032988	
          5.06000000	        -27.02350228	          3.25245304	         -7.02872962	         -3.53586715	         35.50638166	         -2.42876686	         71.70567399	         44.92766566	        -23.40200383	         -0.00214439	         34.32069261	
          5.07000000	        -26.88096643	          3.01376753	         -7.09280529	         -3.61692741	         35.00177322	         -2.24411094	         71.39590863	         44.50489872	        -22.65927131	         -0.00362497	         34.32089626	
          5.08000000	        -26.73532581	          2.77283235	         -7.14074280	         -3.70027357	         34.50871912	         -2.05987666	         71.06520924	         44.08089474	        -21.91148546	         -0.00395843	         34.32096383	
          5.09000000	        -26.58851812	          2.52928650	         -7.17724938	         -3.78610604	         34.02544825	         -1.87592368	         70.71589097	         43.65875605	        -21.19799737	         -0.00371454	         34.32096233	
          5.10000000	        -26.44291020	          2.28372249	         -7.20776810	         -3.87400862	         33.55057427	         -1.69242582	         70.35292889	         43.24097336	        -20.54912135	         -0.00368971	         34.32097492	
          5.11000000	        -26.30039512	          2.03724521	         -7.23658070	         -3.96325128	         33.08334497	         -1.50973070	         69.98191302	         42.82861722	        -19.98158807	         -0.00457010	         34.32106737	
          5.12000000	        -26.16172441	          1.79087005	         -7.26552794	         -4.05317472	         32.62356007	         -1.32814644	         69.60697327	         42.42109509	        -19.49834998	         -0.00662947	         34.32126211	
          5.13000000	        -26.02630360	          1.54510716	         -7.29376692	         -4.14343345	         32.17126377	         -1.14777516	         69.22966102	         42.01643668	        -19.09064651	         -0.00958703	         34.32152889	
          5.14000000	        -25.89249529	          1.29996783	         -7.31859366	         -4.23395008	         31.72636291	         -0.96848163	         68.84926547	         41.61191753	        -18.74042010	         -0.01269438	         34.32179391	
          5.15000000	        -25.75830482	          1.05539633	         -7.33702609	         -4.32458473	         31.28827715	         -0.79000664	         68.46423502	         41.20484289	        -18.42344211	         -0.01501426	         34.32196391	
          5.16000000	        -25.62220621	          0.81190701	         -7.34761158	         -4.41467199	         30.85567827	         -0.61215758	         68.07376839	         40.79335729	        -18.11495144	         -0.01576770	         34.32195839	
          5.17000000	        -25.48381405	          0.57111127	         -7.35180510	         -4.50264882	         30.42638349	         -0.43498072	         67.67862637	         40.37709275	        -17.79793234	         -0.01460350	         34.32173909	
          5.18000000	        -25.34413037	          0.33587364	         -7.35430547	         -4.58596837	         29.99750275	         -0.25884471	         67.28074558	         39.95737971	        -17.47070182	         -0.01168229	         34.32132428	
          5.19000000	        -25.20522489	          0.10999102	         -7.36204533	         -4.66138607	         29.56589841	         -0.08441257	         66.88191387	         39.53681415	        -17.14901152	         -0.00754992	         34.32077897	
          5.20000000	        -25.06944136	         -0.10251746	         -7.38211148	         -4.72554926	         29.12885661	          0.08748132	         66.48221654	         39.11827230	        -16.86031922	         -0.00287352	         34.32018465	
          5.21000000	        -24.93847991	         -0.29826589	         -7.41946543	         -4.77569124	         28.68471754	          0.25600539	         66.07907854	         38.70378473	        -16.63222655	          0.00183280	         34.31960777	
          5.22000000	        -24.81276611	         -0.47519817	         -7.47544330	         -4.81018356	         28.23320998	          0.42049809	         65.66739322	         38.29374509	        -16.47958874	          0.00635379	         34.31908101	
          5.23000000	        -24.69141046	         -0.63290988	         -7.54767830	         -4.82878151	         27.77539160	          0.58057433	         65.24072632	         37.88673076	        -16.39497934	          0.01076458	         34.31860146	
          5.24000000	        -24.57277712	         -0.77256698	         -7.63139438	         -4.83255445	         27.31329973	          0.73614741	         64.79304481	         37.47992017	        -16.34590611	          0.01530662	         34.31814265	
          5.25000000	        -24.45540691	         -0.89654646	         -7.72143486	         -4.82361124	         26.84952214	          0.88737635	         64.32021077	         37.06988296	        -16.28026226	          0.02020842	         34.31767303	
          5.26000000	        -24.33888601	         -1.00797387	         -7.81414396	         -4.80475646	         26.38686356	          1.03457311	         63.82064929	         36.65343769	        -16.13875308	          0.02553640	         34.31717368	
          5.27000000	        -24.22429230	         -1.11030863	         -7.90840024	         -4.77917514	         25.92814602	          1.17811781	         63.29504653	         36.22833238	        -15.87004165	          0.03112600	         34.31664933	
          5.28000000	        -24.11405320	         -1.20706442	         -8.00554805	         -4.75018696	         25.47606596	          1.31842351	         62.74535935	         35.79364495	        -15.44315012	          0.03661035	         34.31612802	
          5.29000000	        -24.01128801	         -1.30167334	         -8.10840398	         -4.72106801	         25.03303331	          1.45595667	         62.17363224	         35.34991807	        -14.85327836	          0.04153007	         34.31565006	
          5.30000000	        -23.91892560	         -1.39740564	         -8.21986353	         -4.69489460	         24.60099625	          1.59126943	         61.58112968	         34.89908246	        -14.12023087	          0.04547109	         34.31525277	
          5.31000000	        -23.83903976	         -1.49718482	         -8.34188444	         -4.67432869	         24.18130234	          1.72497537	         60.96812730	         34.44422477	        -13.28132387	          0.04816172	         34.31495957	
          5.32000000	        -23.77273421	         -1.60318329	         -8.47542206	         -4.66129076	         23.77464734	          1.85762656	         60.33436669	         33.98924752	        -12.38208592	          0.04948737	         34.31477916	
          5.33000000	        -23.72042144	         -1.71626093	         -8.62098805	         -4.65657063	         23.38117438	          1.98950535	         59.67983429	         33.53842183	        -11.46786690	          0.04943384	         34.31471383	
          5.34000000	        -23.68193162	         -1.83549855	         -8.77874029	         -4.65954547	         23.00079075	          2.12039293	         59.00539356	         33.09579148	        -10.57808386	          0.04800451	         34.31477067	
          5.35000000	        -23.65616471	         -1.95811054	         -8.94754968	         -4.66819713	         22.63367701	          2.24940232	         58.31294448	         32.66445102	         -9.74327412	          0.04515413	         34.31496937	
          5.36000000	        -23.64064738	         -2.07986944	         -9.12375523	         -4.67951606	         22.28081795	          2.37496079	         57.60505756	         32.24585076	         -8.98411266	          0.04075668	         34.31534384	
          5.37000000	        -23.63157484	         -2.19595472	         -9.30081590	         -4.69020492	         21.94429593	          2.49499185	         56.88425049	         31.83937338	         -8.31137689	          0.03460165	         34.31593875	
          5.38000000	        -23.62446437	         -2.30199708	         -9.47024954	         -4.69747944	         21.62717615	          2.60727842	         56.15215733	         31.44235519	         -7.72628722	          0.02640810	         34.31680341	
